<?xml version="1.0" standalone="no"?>
<!DOCTYPE svg PUBLIC "-//W3C//DTD SVG 20010904//EN"
 "http://www.w3.org/TR/2001/REC-SVG-20010904/DTD/svg10.dtd">
<svg version="1.0" xmlns="http://www.w3.org/2000/svg"
 width="500.000000pt" height="500.000000pt" viewBox="0 0 500.000000 500.000000"
 preserveAspectRatio="xMidYMid meet">

<g transform="translate(0.000000,500.000000) scale(0.100000,-0.100000)"
fill="#000000" stroke="none">
<path d="M2261 4335 c-841 -107 -1508 -790 -1600 -1637 -64 -585 166 -1182
606 -1573 225 -199 486 -340 761 -409 300 -77 542 -82 848 -21 289 58 558 186
789 375 l71 58 44 -23 c74 -37 193 -74 277 -86 129 -18 354 7 361 41 2 12 -14
15 -85 17 -139 3 -281 50 -421 139 l-53 34 68 83 c403 494 523 1145 322 1752
-210 636 -770 1122 -1424 1235 -159 28 -411 34 -564 15z m507 -120 c633 -95
1176 -555 1376 -1167 69 -209 81 -295 81 -558 -1 -195 -4 -239 -23 -329 -48
-221 -140 -442 -253 -610 -64 -96 -165 -221 -178 -221 -19 0 -275 247 -432
416 -264 284 -739 808 -739 815 0 4 27 9 59 11 172 12 358 185 424 393 18 58
22 93 22 210 0 164 -17 228 -90 331 -72 101 -174 168 -313 206 -72 20 -109 21
-549 26 l-473 4 0 -21 c0 -18 6 -21 47 -21 64 0 125 -37 160 -98 l28 -47 0
-900 c0 -891 0 -900 -21 -940 -30 -59 -103 -105 -165 -105 -42 0 -49 -3 -49
-20 0 -20 7 -20 335 -20 328 0 335 0 335 20 0 17 -7 20 -45 20 -48 0 -108 25
-137 57 -49 54 -48 27 -48 1033 l0 940 213 0 c268 0 313 -10 399 -88 96 -87
148 -230 148 -407 0 -208 -76 -347 -231 -422 -83 -40 -146 -53 -301 -60 -99
-5 -128 -9 -128 -20 0 -7 11 -18 25 -23 44 -17 118 -94 563 -590 451 -502 625
-684 751 -785 l73 -59 -33 -28 c-71 -60 -258 -179 -352 -223 -123 -59 -268
-107 -405 -137 -94 -20 -135 -23 -337 -23 -182 0 -251 4 -330 19 -223 41 -492
156 -680 291 -820 588 -977 1732 -345 2510 82 100 241 250 345 323 257 182
545 284 890 316 67 6 288 -4 383 -19z"/>
</g>
</svg>
